<?xml version="1.0" encoding="UTF-8" standalone="no"?>
<svg
   viewBox="0 0 64 64"
   version="1.1"
   id="svg9"
   sodipodi:docname="1f468-1f3fd-200d-2695.svg"
   xml:space="preserve"
   inkscape:version="1.3.2 (091e20e, 2023-11-25, custom)"
   xmlns:inkscape="http://www.inkscape.org/namespaces/inkscape"
   xmlns:sodipodi="http://sodipodi.sourceforge.net/DTD/sodipodi-0.dtd"
   xmlns="http://www.w3.org/2000/svg"
   xmlns:svg="http://www.w3.org/2000/svg"
   xmlns:rdf="http://www.w3.org/1999/02/22-rdf-syntax-ns#"
   xmlns:cc="http://creativecommons.org/ns#"
   xmlns:dc="http://purl.org/dc/elements/1.1/"><defs
     id="defs9" /><sodipodi:namedview
     id="namedview9"
     pagecolor="#ffffff"
     bordercolor="#000000"
     borderopacity="0.25"
     inkscape:showpageshadow="2"
     inkscape:pageopacity="0.0"
     inkscape:pagecheckerboard="0"
     inkscape:deskcolor="#d1d1d1"
     inkscape:zoom="12.046875"
     inkscape:cx="43.828794"
     inkscape:cy="32.166018"
     inkscape:window-width="1920"
     inkscape:window-height="991"
     inkscape:window-x="-9"
     inkscape:window-y="-9"
     inkscape:window-maximized="1"
     inkscape:current-layer="svg9" /><title
     id="title1">man health worker: medium skin tone</title><path
     fill="#b386e2"
     d="M42 49.1V42H22v7.1C9.5 49.4 7 51.5 7 62h50c0-10.5-2.5-12.6-15-12.9"
     id="path2"
     style="fill:#4fd1d9;fill-opacity:1" /><g
     id="g10"
     transform="matrix(1.8699626,0,0,1.7681532,-2.3742112,1.1272811)"><path
       fill="#292f33"
       d="M 10,32.5 H 8 C 8,28.406 9.877,24 14,24 c 0.278105,0.202697 7.00058,-0.23032 7.942703,-0.0067 2.489617,0.590889 0.643769,1.815294 0.600826,2.005544 -0.03239,0.143484 -8.429941,-0.407683 -8.806819,-0.251529 C 12.842615,26.117754 11.073598,27.692295 10,32.5 Z m 17,-4 H 25 C 25,28.089 24.479,26 22,26 v -2 c 3.533,0 5,2.931 5,4.5 z"
       id="path10-6"
       sodipodi:nodetypes="cccssscccccc" /><circle
       fill="#ccd6dd"
       cx="9"
       cy="32.5"
       r="3"
       id="circle10" /><circle
       fill="#f5f8fa"
       cx="9"
       cy="32.5"
       r="2"
       id="circle11" /><path
       fill="#292f33"
       d="m 30,34 h -2 c 0,-0.835 -0.108,-5 -2.25,-5 -2.142,0 -2.25,4.165 -2.25,5 h -2 c 0,-4.383 1.589,-7 4.25,-7 2.661,0 4.25,2.617 4.25,7 z"
       id="path11" /><circle
       fill="#ccd6dd"
       cx="22.5"
       cy="34"
       r="1"
       id="circle12" /><circle
       fill="#ccd6dd"
       cx="29"
       cy="34"
       r="1"
       id="circle13" /></g><g
     id="g9"
     transform="matrix(0.81915879,0,0,0.8284479,6.0774504,0.09407695)"
     style="display:inline"><path
       fill="#ffb300"
       d="M 6,36 H 58 C 58,8 54,2 32,2 10,2 6,8 6,36 Z"
       id="path1-9"
       style="fill:#594640;fill-opacity:1" /><path
       fill="#ffdd67"
       d="m 55.8,29.9 c -0.2,1.1 -0.4,2.1 -0.7,2.7 -0.6,1 -1.7,1.6 -1.7,1.6 0,0 0.3,-2.1 0.2,-5 C 52.4,11.8 51.4,16.6 32,16.6 c -19.4,0 -20.4,-4.8 -21.6,12.5 -0.1,2.9 0.2,5.1 0.2,5.1 0,0 -1.1,-0.6 -1.7,-1.6 C 8.6,32 8.4,31 8.2,29.9 6.4,29.4 4,29.8 4,35 c 0,3.2 1.2,5.9 5.3,6.2 1.3,10.2 7.3,15.4 17.2,19.9 2.7,1.2 8.3,1.2 11,0 10,-4.5 15.9,-9.7 17.2,-19.9 4.1,-0.3 5.3,-2.9 5.3,-6.2 0,-5.2 -2.4,-5.6 -4.2,-5.1"
       id="path2-2"
       style="fill:#d6a57c;fill-opacity:1" /><path
       fill="#937237"
       d="m 41,48.9 c 0,3.4 -4.5,5.1 -9,5.1 -4.5,0 -9,-1.7 -9,-5.1 0,0 0,-0.9 0.9,-0.9 h 16.2 c 0.9,0 0.9,0.9 0.9,0.9"
       id="path3-7"
       style="fill:#664e27;fill-opacity:1" /><path
       fill="#f5f5f5"
       d="m 20,28.6 c -5,0 -7,1.8 -7,3.6 0,1.8 0,4.4 6.6,4.4 6.4,0 7.4,-0.8 7.4,-3.5 0,-1.8 -2,-4.5 -7,-4.5"
       id="path4-9" /><circle
       cx="20.5"
       cy="31.6"
       r="4.5"
       fill="#664e27"
       id="circle4" /><path
       fill="#231f20"
       d="m 22,31.6 c 0,0.8 -0.7,1.5 -1.5,1.5 -0.8,0 -1.5,-0.7 -1.5,-1.5 0,-0.8 0.7,-1.5 1.5,-1.5 0.8,0 1.5,0.7 1.5,1.5"
       id="path5-0" /><path
       fill="#664e27"
       d="m 13,32.1 c 0,-7 14,-7 14,1 -2,-6 -12,-6 -14,-1"
       id="path6" /><path
       fill="#f5f5f5"
       d="m 44,28.6 c 5,0 7,1.8 7,3.6 0,1.8 0,4.4 -6.6,4.4 -6.4,0 -7.4,-0.8 -7.4,-3.5 0,-1.8 2,-4.5 7,-4.5"
       id="path7" /><circle
       cx="43.5"
       cy="31.6"
       r="4.5"
       fill="#664e27"
       id="circle7-9" /><path
       fill="#231f20"
       d="m 42,31.6 c 0,0.8 0.7,1.5 1.5,1.5 0.8,0 1.5,-0.7 1.5,-1.5 0,-0.8 -0.7,-1.5 -1.5,-1.5 -0.8,0 -1.5,0.7 -1.5,1.5"
       id="path8-3" /><path
       fill="#664e27"
       d="m 51,32.1 c 0,-7 -14,-7 -14,1 2,-6 12,-6 14,-1"
       id="path9-9" /><path
       fill="#eba352"
       d="m 32,45 c -4.2,0 -6.3,-3 -4.2,-3 h 8.4 c 2.1,0 0,3 -4.2,3"
       id="path10"
       style="fill:#b58360;fill-opacity:1" /></g><metadata
     id="metadata10"><rdf:RDF><cc:Work
         rdf:about=""><dc:title>man health worker: medium skin tone</dc:title></cc:Work></rdf:RDF></metadata></svg>
