<?xml version="1.0" encoding="UTF-8" standalone="no"?>
<svg
   viewBox="0 0 64 64"
   version="1.1"
   id="svg9"
   sodipodi:docname="1f468-1f3ff-200d-1f393.svg"
   xml:space="preserve"
   inkscape:version="1.3.2 (091e20e, 2023-11-25, custom)"
   xmlns:inkscape="http://www.inkscape.org/namespaces/inkscape"
   xmlns:sodipodi="http://sodipodi.sourceforge.net/DTD/sodipodi-0.dtd"
   xmlns="http://www.w3.org/2000/svg"
   xmlns:svg="http://www.w3.org/2000/svg"
   xmlns:rdf="http://www.w3.org/1999/02/22-rdf-syntax-ns#"
   xmlns:cc="http://creativecommons.org/ns#"
   xmlns:dc="http://purl.org/dc/elements/1.1/"><defs
     id="defs9" /><sodipodi:namedview
     id="namedview9"
     pagecolor="#ffffff"
     bordercolor="#000000"
     borderopacity="0.25"
     inkscape:showpageshadow="2"
     inkscape:pageopacity="0.0"
     inkscape:pagecheckerboard="0"
     inkscape:deskcolor="#d1d1d1"
     inkscape:zoom="12.046875"
     inkscape:cx="39.67834"
     inkscape:cy="31.501946"
     inkscape:window-width="1920"
     inkscape:window-height="991"
     inkscape:window-x="-9"
     inkscape:window-y="-9"
     inkscape:window-maximized="1"
     inkscape:current-layer="svg9" /><title
     id="title1">man student: dark skin tone</title><g
     id="g9"
     transform="matrix(0.7987595,0,0,0.79482002,6.9854563,13.385232)"
     style="display:inline"><path
       fill="#ffb300"
       d="M 6,36 H 58 C 58,8 54,2 32,2 10,2 6,8 6,36 Z"
       id="path1-9"
       style="fill:#231f20;fill-opacity:1" /><path
       fill="#ffdd67"
       d="m 55.8,29.9 c -0.2,1.1 -0.4,2.1 -0.7,2.7 -0.6,1 -1.7,1.6 -1.7,1.6 0,0 0.3,-2.1 0.2,-5 C 52.4,11.8 51.4,16.6 32,16.6 c -19.4,0 -20.4,-4.8 -21.6,12.5 -0.1,2.9 0.2,5.1 0.2,5.1 0,0 -1.1,-0.6 -1.7,-1.6 C 8.6,32 8.4,31 8.2,29.9 6.4,29.4 4,29.8 4,35 c 0,3.2 1.2,5.9 5.3,6.2 1.3,10.2 7.3,15.4 17.2,19.9 2.7,1.2 8.3,1.2 11,0 10,-4.5 15.9,-9.7 17.2,-19.9 4.1,-0.3 5.3,-2.9 5.3,-6.2 0,-5.2 -2.4,-5.6 -4.2,-5.1"
       id="path2-2"
       style="fill:#8a6859;fill-opacity:1" /><path
       fill="#937237"
       d="m 41,48.9 c 0,3.4 -4.5,5.1 -9,5.1 -4.5,0 -9,-1.7 -9,-5.1 0,0 0,-0.9 0.9,-0.9 h 16.2 c 0.9,0 0.9,0.9 0.9,0.9"
       id="path3-7"
       style="fill:#574137;fill-opacity:1" /><path
       fill="#f5f5f5"
       d="m 20,28.6 c -5,0 -7,1.8 -7,3.6 0,1.8 0,4.4 6.6,4.4 6.4,0 7.4,-0.8 7.4,-3.5 0,-1.8 -2,-4.5 -7,-4.5"
       id="path4-9" /><circle
       cx="20.5"
       cy="31.6"
       r="4.5"
       fill="#664e27"
       id="circle4" /><path
       fill="#231f20"
       d="m 22,31.6 c 0,0.8 -0.7,1.5 -1.5,1.5 -0.8,0 -1.5,-0.7 -1.5,-1.5 0,-0.8 0.7,-1.5 1.5,-1.5 0.8,0 1.5,0.7 1.5,1.5"
       id="path5-0" /><path
       fill="#664e27"
       d="m 13,32.1 c 0,-7 14,-7 14,1 -2,-6 -12,-6 -14,-1"
       id="path6" /><path
       fill="#f5f5f5"
       d="m 44,28.6 c 5,0 7,1.8 7,3.6 0,1.8 0,4.4 -6.6,4.4 -6.4,0 -7.4,-0.8 -7.4,-3.5 0,-1.8 2,-4.5 7,-4.5"
       id="path7" /><circle
       cx="43.5"
       cy="31.6"
       r="4.5"
       fill="#664e27"
       id="circle7-9" /><path
       fill="#231f20"
       d="m 42,31.6 c 0,0.8 0.7,1.5 1.5,1.5 0.8,0 1.5,-0.7 1.5,-1.5 0,-0.8 -0.7,-1.5 -1.5,-1.5 -0.8,0 -1.5,0.7 -1.5,1.5"
       id="path8-3" /><path
       fill="#664e27"
       d="m 51,32.1 c 0,-7 -14,-7 -14,1 2,-6 12,-6 14,-1"
       id="path9-9" /><path
       fill="#eba352"
       d="m 32,45 c -4.2,0 -6.3,-3 -4.2,-3 h 8.4 c 2.1,0 0,3 -4.2,3"
       id="path10"
       style="fill:#705041;fill-opacity:1" /></g><metadata
     id="metadata10"><rdf:RDF><cc:Work
         rdf:about=""><dc:title>man student: dark skin tone</dc:title></cc:Work></rdf:RDF></metadata><g
     id="g1"
     transform="matrix(0.97509728,0,0,0.95940857,1.5854734,-11.536288)"
     inkscape:label="hat"><path
       fill="#596066"
       d="M 13.1,30.2 V 37 c 0,14 37.7,14 37.7,0 v -6.8 z"
       id="path1" /><path
       fill="#3e4347"
       d="M 62,25.4 32,38.9 2,25.4 32,11.9 Z"
       id="path2-7" /><g
       fill="#ffce31"
       id="g4"><path
         d="m 31.9,24.8 c -4.6,2.1 -14.6,6.6 -15,6.8 -0.2,0.1 -0.4,0.3 -0.4,0.6 V 39 c 0,0.8 1,0.8 1,0 v -6.3 c 4.5,-2 14.2,-6.4 14.6,-6.6 0.6,-0.3 0.4,-1.5 -0.2,-1.3"
         id="path3" /><ellipse
         cx="17"
         cy="38.900002"
         rx="1.9"
         ry="2.4000001"
         id="ellipse3" /><path
         d="m 17,51.9 c 1,0 1.9,-0.5 1.9,-1.2 V 38.9 h -3.8 v 11.8 c 0,0.7 0.9,1.2 1.9,1.2"
         id="path4" /></g><g
       fill="#594640"
       id="g5"><path
         d="m 18.3,39.2 c -0.1,0 -0.1,0.1 -0.2,0.1 v 12.4 c 0.1,0 0.1,-0.1 0.2,-0.1 V 39.2 m -0.8,0.3 h -0.2 v 12.4 h 0.2 V 39.5 m -0.8,0 h -0.2 v 12.4 h 0.2 V 39.5 m -0.8,-0.2 c -0.1,0 -0.1,-0.1 -0.2,-0.1 v 12.5 c 0.1,0 0.1,0.1 0.2,0.1 V 39.3"
         id="path5" /></g></g></svg>
