<?xml version="1.0" encoding="UTF-8" standalone="no"?>
<svg
   viewBox="0 0 64 64"
   version="1.1"
   id="svg9"
   sodipodi:docname="1f469-200d-2695.svg"
   xml:space="preserve"
   inkscape:version="1.3.2 (091e20e, 2023-11-25, custom)"
   xmlns:inkscape="http://www.inkscape.org/namespaces/inkscape"
   xmlns:sodipodi="http://sodipodi.sourceforge.net/DTD/sodipodi-0.dtd"
   xmlns="http://www.w3.org/2000/svg"
   xmlns:svg="http://www.w3.org/2000/svg"
   xmlns:rdf="http://www.w3.org/1999/02/22-rdf-syntax-ns#"
   xmlns:cc="http://creativecommons.org/ns#"
   xmlns:dc="http://purl.org/dc/elements/1.1/"><defs
     id="defs9" /><sodipodi:namedview
     id="namedview9"
     pagecolor="#ffffff"
     bordercolor="#000000"
     borderopacity="0.25"
     inkscape:showpageshadow="2"
     inkscape:pageopacity="0.0"
     inkscape:pagecheckerboard="0"
     inkscape:deskcolor="#d1d1d1"
     inkscape:zoom="12.046875"
     inkscape:cx="29.385214"
     inkscape:cy="30.339818"
     inkscape:window-width="1920"
     inkscape:window-height="991"
     inkscape:window-x="-9"
     inkscape:window-y="-9"
     inkscape:window-maximized="1"
     inkscape:current-layer="svg9" /><title
     id="title1">woman health worker</title><path
     fill="#ffb300"
     d="m 31.833982,1.6679642 c -15.28288,0 -23.6420237,9.3812188 -23.6420237,21.8072198 V 51.042802 H 55.476005 V 23.475184 c 0,-18.4332726 -12.834241,-18.104107 -12.834241,-18.104107 0,0 -0.928794,-3.7031128 -10.807782,-3.7031128 z"
     id="path1"
     style="stroke-width:0.833567" /><path
     fill="#b386e2"
     d="M42 49.1V42H22v7.1C9.5 49.4 7 51.5 7 62h50c0-10.5-2.5-12.6-15-12.9"
     id="path2"
     style="fill:#4fd1d9;fill-opacity:1" /><g
     id="g10"
     transform="matrix(1.8699626,0,0,1.7681532,-2.3742112,1.1272811)"><path
       fill="#292f33"
       d="M 10,32.5 H 8 C 8,28.406 9.877,24 14,24 c 0.278105,0.202697 7.00058,-0.23032 7.942703,-0.0067 2.489617,0.590889 0.643769,1.815294 0.600826,2.005544 -0.03239,0.143484 -8.429941,-0.407683 -8.806819,-0.251529 C 12.842615,26.117754 11.073598,27.692295 10,32.5 Z m 17,-4 H 25 C 25,28.089 24.479,26 22,26 v -2 c 3.533,0 5,2.931 5,4.5 z"
       id="path10-6"
       sodipodi:nodetypes="cccssscccccc" /><circle
       fill="#ccd6dd"
       cx="9"
       cy="32.5"
       r="3"
       id="circle10" /><circle
       fill="#f5f8fa"
       cx="9"
       cy="32.5"
       r="2"
       id="circle11" /><path
       fill="#292f33"
       d="m 30,34 h -2 c 0,-0.835 -0.108,-5 -2.25,-5 -2.142,0 -2.25,4.165 -2.25,5 h -2 c 0,-4.383 1.589,-7 4.25,-7 2.661,0 4.25,2.617 4.25,7 z"
       id="path11" /><circle
       fill="#ccd6dd"
       cx="22.5"
       cy="34"
       r="1"
       id="circle12" /><circle
       fill="#ccd6dd"
       cx="29"
       cy="34"
       r="1"
       id="circle13" /></g><path
     fill="#ffdd67"
     d="m 13.595849,33.514735 c 0,0 -3.7151747,-0.905206 -3.7151747,-6.171855 0,-4.196861 2.7863817,-4.855192 2.7863817,-4.855192 C 22.63048,22.405396 41.12192,9.8971039 41.12192,9.8971039 c 0,0 3.884046,11.0270471 9.794552,12.5082921 0,0 2.870817,0.493749 2.870817,4.855193 0,5.266649 -3.799611,6.171854 -3.799611,6.171854 -0.08443,7.982266 -11.314397,17.610359 -18.153696,17.610359 -6.8393,0 -18.238133,-9.628093 -18.238133,-17.528067 z"
     id="path2-5"
     style="stroke-width:0.833567" /><path
     fill="#eba352"
     d="m 31.833982,38.699093 c -3.546304,0 -5.319456,-2.468742 -3.546304,-2.468742 h 7.092607 c 1.773152,0 0,2.468742 -3.546303,2.468742"
     id="path3"
     style="stroke-width:0.833567" /><path
     fill="#f5f5f5"
     d="m 37.153437,31.45745 c -1.266537,0 -1.097665,-1.481245 -1.097665,-1.481245 1.857587,-9.463511 12.665369,-4.443736 12.665369,-4.443736 0.844358,1.645828 -1.942023,5.678107 -2.701945,5.924981 -3.546304,0.822914 -8.865759,0 -8.865759,0"
     id="path4"
     style="stroke-width:0.833567" /><path
     fill="#664e27"
     d="m 45.765888,27.589754 c 0,2.057285 -1.688716,3.703113 -3.79961,3.703113 -2.110895,0 -3.799611,-1.645828 -3.799611,-3.703113 0,-2.057285 1.688716,-3.703113 3.799611,-3.703113 2.110894,0 3.79961,1.645828 3.79961,3.703113"
     id="path5"
     style="stroke-width:0.833567" /><ellipse
     cx="41.966278"
     cy="27.589754"
     fill="#2b2925"
     id="circle5"
     rx="1.266537"
     ry="1.2343709"
     style="stroke-width:0.833567" /><path
     fill="#3b3226"
     d="m 36.055772,29.893913 c 1.857587,-11.273921 11.398832,-3.785404 15.198443,-5.34894 -3.799611,3.53853 -11.398832,-4.032279 -15.198443,5.34894"
     id="path6-1"
     style="stroke-width:0.833567" /><path
     fill="#f5f5f5"
     d="m 26.514526,31.45745 c 1.266537,0 1.097666,-1.481245 1.097666,-1.481245 -1.857588,-9.463511 -12.66537,-4.443736 -12.66537,-4.443736 -0.844358,1.645828 1.942024,5.678107 2.701946,5.924981 3.546303,0.822914 8.865758,0 8.865758,0"
     id="path7-9"
     style="stroke-width:0.833567" /><path
     fill="#664e27"
     d="m 17.902075,27.589754 c 0,2.057285 1.688716,3.703113 3.799611,3.703113 2.110895,0 3.799611,-1.645828 3.799611,-3.703113 0,-2.057285 -1.688716,-3.703113 -3.799611,-3.703113 -2.110895,0 -3.799611,1.645828 -3.799611,3.703113"
     id="path8"
     style="stroke-width:0.833567" /><path
     fill="#3b3226"
     d="m 27.612192,29.893913 c -1.857588,-11.273921 -11.398833,-3.785404 -15.198444,-5.34894 3.799611,3.53853 11.398833,-4.032279 15.198444,5.34894"
     id="path9"
     style="stroke-width:0.833567" /><path
     fill="#f09985"
     d="m 31.833982,42.813663 -8.44358,-1.234371 c 5.066148,6.994768 11.821012,6.994768 16.88716,0 z"
     id="path10-4"
     style="stroke-width:0.833567" /><path
     fill="#d47f6c"
     d="m 35.126978,41.250126 c -2.448638,-0.905205 -3.292996,0.57604 -3.292996,0.57604 0,0 -0.844358,-1.481245 -3.292996,-0.57604 -1.942024,0.740623 -5.150584,0.329166 -5.150584,0.329166 3.377432,0.740622 3.799611,2.057285 8.44358,2.057285 4.643969,0 5.066148,-1.398954 8.44358,-2.057285 0,0 -3.208561,0.411457 -5.150584,-0.329166"
     id="path11-2"
     style="stroke-width:0.833567" /><ellipse
     cx="21.701687"
     cy="27.589754"
     fill="#2b2925"
     id="circle11-3"
     rx="1.266537"
     ry="1.2343709"
     style="stroke-width:0.833567" /><metadata
     id="metadata10"><rdf:RDF><cc:Work
         rdf:about=""><dc:title>woman health worker</dc:title></cc:Work></rdf:RDF></metadata></svg>
