<?xml version="1.0" encoding="UTF-8" standalone="no"?>
<svg
   viewBox="0 0 64 64"
   version="1.1"
   id="svg9"
   sodipodi:docname="1f469-1f3ff-200d-1f393.svg"
   xml:space="preserve"
   inkscape:version="1.3.2 (091e20e, 2023-11-25, custom)"
   xmlns:inkscape="http://www.inkscape.org/namespaces/inkscape"
   xmlns:sodipodi="http://sodipodi.sourceforge.net/DTD/sodipodi-0.dtd"
   xmlns="http://www.w3.org/2000/svg"
   xmlns:svg="http://www.w3.org/2000/svg"
   xmlns:rdf="http://www.w3.org/1999/02/22-rdf-syntax-ns#"
   xmlns:cc="http://creativecommons.org/ns#"
   xmlns:dc="http://purl.org/dc/elements/1.1/"><defs
     id="defs9" /><sodipodi:namedview
     id="namedview9"
     pagecolor="#ffffff"
     bordercolor="#000000"
     borderopacity="0.25"
     inkscape:showpageshadow="2"
     inkscape:pageopacity="0.0"
     inkscape:pagecheckerboard="0"
     inkscape:deskcolor="#d1d1d1"
     inkscape:zoom="12.046875"
     inkscape:cx="35.278859"
     inkscape:cy="32.498054"
     inkscape:window-width="1920"
     inkscape:window-height="991"
     inkscape:window-x="-9"
     inkscape:window-y="-9"
     inkscape:window-maximized="1"
     inkscape:current-layer="svg9"
     showguides="true" /><title
     id="title1">woman student: dark skin tone</title><metadata
     id="metadata10"><rdf:RDF><cc:Work
         rdf:about=""><dc:title>woman student: dark skin tone</dc:title></cc:Work></rdf:RDF></metadata><path
     fill="#ffb300"
     d="m 32.041504,13.206226 c -15.041411,0 -23.268482,9.444306 -23.268482,21.953869 V 62.9131 H 55.309987 V 35.160095 c 0,-18.557233 -12.631462,-18.225854 -12.631462,-18.225854 0,0 -0.914119,-3.728015 -10.637021,-3.728015 z"
     id="path1-5"
     style="stroke-width:0.829732;fill:#231f20;fill-opacity:1" /><path
     fill="#ffdd67"
     d="m 14.091532,45.26716 c 0,0 -3.656476,-0.911293 -3.656476,-6.213359 0,-4.225085 2.742357,-4.887843 2.742357,-4.887843 9.806004,-0.08285 28.005281,-12.675253 28.005281,-12.675253 0,0 3.822679,11.101202 9.6398,12.592408 0,0 2.825458,0.497069 2.825458,4.887843 0,5.302066 -3.739577,6.213359 -3.739577,6.213359 -0.0831,8.035945 -11.135631,17.728785 -17.866871,17.728785 -6.731239,0 -17.949972,-9.69284 -17.949972,-17.64594 z"
     id="path2"
     style="stroke-width:0.829732;fill:#8a6859;fill-opacity:1" /><path
     fill="#eba352"
     d="m 32.041504,50.486382 c -3.490272,0 -5.235408,-2.485344 -3.490272,-2.485344 h 6.980545 c 1.745136,0 0,2.485344 -3.490273,2.485344"
     id="path3-9"
     style="stroke-width:0.829732;fill:#705041;fill-opacity:1" /><path
     fill="#f5f5f5"
     d="m 37.276913,43.19604 c -1.246526,0 -1.080322,-1.491206 -1.080322,-1.491206 1.828238,-9.527151 12.465258,-4.473619 12.465258,-4.473619 0.831017,1.656896 -1.91134,5.716291 -2.659255,5.964825 -3.490272,0.828448 -8.725681,0 -8.725681,0"
     id="path4-2"
     style="stroke-width:0.829732" /><path
     fill="#664e27"
     d="m 45.753289,39.302335 c 0,2.07112 -1.662035,3.728016 -3.739578,3.728016 -2.077543,0 -3.739577,-1.656896 -3.739577,-3.728016 0,-2.07112 1.662034,-3.728016 3.739577,-3.728016 2.077543,0 3.739578,1.656896 3.739578,3.728016"
     id="path5-9"
     style="stroke-width:0.829732" /><ellipse
     cx="42.01371"
     cy="39.302334"
     fill="#2b2925"
     id="circle5"
     rx="1.2465259"
     ry="1.2426718"
     style="stroke-width:0.829732" /><path
     fill="#3b3226"
     d="m 36.196591,41.621989 c 1.828238,-11.349736 11.218732,-3.81086 14.95831,-5.384911 -3.739578,3.562326 -11.218733,-4.059395 -14.95831,5.384911"
     id="path6-8"
     style="stroke-width:0.829732" /><path
     fill="#f5f5f5"
     d="m 26.806096,43.19604 c 1.246526,0 1.080322,-1.491206 1.080322,-1.491206 C 26.05818,32.177683 15.42116,37.231215 15.42116,37.231215 c -0.831017,1.656896 1.911339,5.716291 2.659255,5.964825 3.490272,0.828448 8.725681,0 8.725681,0"
     id="path7-1"
     style="stroke-width:0.829732" /><path
     fill="#664e27"
     d="m 18.32972,39.302335 c 0,2.07112 1.662035,3.728016 3.739578,3.728016 2.077543,0 3.739577,-1.656896 3.739577,-3.728016 0,-2.07112 -1.662034,-3.728016 -3.739577,-3.728016 -2.077543,0 -3.739578,1.656896 -3.739578,3.728016"
     id="path8"
     style="stroke-width:0.829732" /><path
     fill="#3b3226"
     d="m 27.886418,41.621989 c -1.828238,-11.349736 -11.218732,-3.81086 -14.95831,-5.384911 3.739578,3.562326 11.218733,-4.059395 14.95831,5.384911"
     id="path9"
     style="stroke-width:0.829732" /><path
     fill="#f09985"
     d="m 32.041504,54.628621 -8.310172,-1.242672 c 4.986104,7.041808 11.634241,7.041808 16.620345,0 z"
     id="path10-6"
     style="stroke-width:0.829732;fill:#7d5442;fill-opacity:1" /><path
     fill="#d47f6c"
     d="m 35.282472,53.05457 c -2.40995,-0.911292 -3.240968,0.579914 -3.240968,0.579914 0,0 -0.831017,-1.491206 -3.240967,-0.579914 -1.911339,0.745603 -5.069205,0.331379 -5.069205,0.331379 3.324069,0.745604 3.739578,2.07112 8.310172,2.07112 4.570595,0 4.986104,-1.408361 8.310173,-2.07112 0,0 -3.157866,0.414224 -5.069205,-0.331379"
     id="path11"
     style="stroke-width:0.829732;fill:#5c3f34;fill-opacity:1" /><ellipse
     cx="22.069298"
     cy="39.302334"
     fill="#2b2925"
     id="circle11"
     rx="1.2465259"
     ry="1.2426718"
     style="stroke-width:0.829732" /><g
     id="g1"
     transform="matrix(0.97509728,0,0,0.95940857,1.5854734,-11.536288)"
     inkscape:label="hat"><path
       fill="#596066"
       d="M 13.1,30.2 V 37 c 0,14 37.7,14 37.7,0 v -6.8 z"
       id="path1" /><path
       fill="#3e4347"
       d="M 62,25.4 32,38.9 2,25.4 32,11.9 Z"
       id="path2-7" /><g
       fill="#ffce31"
       id="g4"><path
         d="m 31.9,24.8 c -4.6,2.1 -14.6,6.6 -15,6.8 -0.2,0.1 -0.4,0.3 -0.4,0.6 V 39 c 0,0.8 1,0.8 1,0 v -6.3 c 4.5,-2 14.2,-6.4 14.6,-6.6 0.6,-0.3 0.4,-1.5 -0.2,-1.3"
         id="path3" /><ellipse
         cx="17"
         cy="38.900002"
         rx="1.9"
         ry="2.4000001"
         id="ellipse3" /><path
         d="m 17,51.9 c 1,0 1.9,-0.5 1.9,-1.2 V 38.9 h -3.8 v 11.8 c 0,0.7 0.9,1.2 1.9,1.2"
         id="path4" /></g><g
       fill="#594640"
       id="g5"><path
         d="m 18.3,39.2 c -0.1,0 -0.1,0.1 -0.2,0.1 v 12.4 c 0.1,0 0.1,-0.1 0.2,-0.1 V 39.2 m -0.8,0.3 h -0.2 v 12.4 h 0.2 V 39.5 m -0.8,0 h -0.2 v 12.4 h 0.2 V 39.5 m -0.8,-0.2 c -0.1,0 -0.1,-0.1 -0.2,-0.1 v 12.5 c 0.1,0 0.1,0.1 0.2,0.1 V 39.3"
         id="path5" /></g></g></svg>
