<?xml version="1.0" encoding="UTF-8" standalone="no"?>
<svg
   viewBox="0 0 64 64"
   version="1.1"
   id="svg15"
   sodipodi:docname="1f469-1f3fe-200d-1f3eb.svg"
   xml:space="preserve"
   inkscape:version="1.3.2 (091e20e, 2023-11-25, custom)"
   xmlns:inkscape="http://www.inkscape.org/namespaces/inkscape"
   xmlns:sodipodi="http://sodipodi.sourceforge.net/DTD/sodipodi-0.dtd"
   xmlns="http://www.w3.org/2000/svg"
   xmlns:svg="http://www.w3.org/2000/svg"
   xmlns:rdf="http://www.w3.org/1999/02/22-rdf-syntax-ns#"
   xmlns:cc="http://creativecommons.org/ns#"
   xmlns:dc="http://purl.org/dc/elements/1.1/"><title
     id="title17">woman teacher: medium-dark skin tone</title><defs
     id="defs15" /><sodipodi:namedview
     id="namedview15"
     pagecolor="#ffffff"
     bordercolor="#000000"
     borderopacity="0.25"
     inkscape:showpageshadow="2"
     inkscape:pageopacity="0.0"
     inkscape:pagecheckerboard="0"
     inkscape:deskcolor="#d1d1d1"
     inkscape:zoom="11.313709"
     inkscape:cx="43.133514"
     inkscape:cy="32.659494"
     inkscape:window-width="1920"
     inkscape:window-height="991"
     inkscape:window-x="-9"
     inkscape:window-y="-9"
     inkscape:window-maximized="1"
     inkscape:current-layer="svg15" /><rect
     style="fill:#d99e82;fill-opacity:1;fill-rule:evenodd;stroke-width:0.115559"
     id="rect15"
     width="64.169937"
     height="41.542522"
     x="0"
     y="2.8284271" /><rect
     style="fill:#26a69a;fill-opacity:1;fill-rule:evenodd;stroke-width:0.115559"
     id="rect16"
     width="55.331104"
     height="35.902645"
     x="4.2426405"
     y="5.5795875" /><path
     fill="#ffb300"
     d="m 32.272982,3.885 c -15.28288,0 -23.6420237,9.381219 -23.6420237,21.80722 V 53.259838 H 55.915005 V 25.69222 c 0,-18.4332728 -12.834241,-18.1041072 -12.834241,-18.1041072 0,0 -0.928794,-3.7031128 -10.807782,-3.7031128 z"
     id="path1-7"
     style="stroke-width:0.833567;fill:#231f20;fill-opacity:1" /><path
     fill="#b386e2"
     d="m 42.439,51.317036 v -7.1 h -20 v 7.1 c -12.5,0.3 -15,2.4 -15,12.9 h 50 c 0,-10.5 -2.5,-12.6 -15,-12.9"
     id="path2-4"
     style="fill:#d0d0d0;fill-opacity:1" /><path
     fill="#ffdd67"
     d="m 14.034849,35.731771 c 0,0 -3.715175,-0.905206 -3.715175,-6.171855 0,-4.196861 2.786382,-4.855192 2.786382,-4.855192 C 23.06948,24.622432 41.56092,12.11414 41.56092,12.11414 c 0,0 3.884046,11.027047 9.794552,12.508292 0,0 2.870817,0.493749 2.870817,4.855193 0,5.266649 -3.799611,6.171854 -3.799611,6.171854 -0.08443,7.982266 -11.314397,17.610359 -18.153696,17.610359 -6.8393,0 -18.238133,-9.628093 -18.238133,-17.528067 z"
     id="path2-5-6"
     style="stroke-width:0.833567;fill:#b47d56;fill-opacity:1" /><path
     fill="#eba352"
     d="m 32.272982,40.916129 c -3.546304,0 -5.319456,-2.468742 -3.546304,-2.468742 h 7.092607 c 1.773152,0 0,2.468742 -3.546303,2.468742"
     id="path3-72"
     style="stroke-width:0.833567;fill:#935e3e;fill-opacity:1" /><path
     fill="#f5f5f5"
     d="m 37.592437,33.674486 c -1.266537,0 -1.097665,-1.481245 -1.097665,-1.481245 1.857587,-9.463511 12.665369,-4.443736 12.665369,-4.443736 0.844358,1.645828 -1.942023,5.678107 -2.701945,5.924981 -3.546304,0.822914 -8.865759,0 -8.865759,0"
     id="path4-0"
     style="stroke-width:0.833567" /><path
     fill="#664e27"
     d="m 46.204888,29.80679 c 0,2.057285 -1.688716,3.703113 -3.79961,3.703113 -2.110895,0 -3.799611,-1.645828 -3.799611,-3.703113 0,-2.057285 1.688716,-3.703113 3.799611,-3.703113 2.110894,0 3.79961,1.645828 3.79961,3.703113"
     id="path5-5"
     style="stroke-width:0.833567" /><ellipse
     cx="42.405277"
     cy="29.806789"
     fill="#2b2925"
     id="circle5"
     rx="1.266537"
     ry="1.2343709"
     style="stroke-width:0.833567" /><path
     fill="#3b3226"
     d="m 36.494772,32.110949 c 1.857587,-11.273921 11.398832,-3.785404 15.198443,-5.34894 -3.799611,3.53853 -11.398832,-4.032279 -15.198443,5.34894"
     id="path6-1-7"
     style="stroke-width:0.833567" /><path
     fill="#f5f5f5"
     d="m 26.953526,33.674486 c 1.266537,0 1.097666,-1.481245 1.097666,-1.481245 -1.857588,-9.463511 -12.66537,-4.443736 -12.66537,-4.443736 -0.844358,1.645828 1.942024,5.678107 2.701946,5.924981 3.546303,0.822914 8.865758,0 8.865758,0"
     id="path7-9"
     style="stroke-width:0.833567" /><path
     fill="#664e27"
     d="m 18.341075,29.80679 c 0,2.057285 1.688716,3.703113 3.799611,3.703113 2.110895,0 3.799611,-1.645828 3.799611,-3.703113 0,-2.057285 -1.688716,-3.703113 -3.799611,-3.703113 -2.110895,0 -3.799611,1.645828 -3.799611,3.703113"
     id="path8"
     style="stroke-width:0.833567" /><path
     fill="#3b3226"
     d="m 28.051192,32.110949 c -1.857588,-11.273921 -11.398833,-3.785404 -15.198444,-5.34894 3.799611,3.53853 11.398833,-4.032279 15.198444,5.34894"
     id="path9"
     style="stroke-width:0.833567" /><path
     fill="#f09985"
     d="m 32.272982,45.030699 -8.44358,-1.234371 c 5.066148,6.994768 11.821012,6.994768 16.88716,0 z"
     id="path10-4"
     style="stroke-width:0.833567;fill:#935e3e;fill-opacity:1" /><path
     fill="#d47f6c"
     d="m 35.565978,43.467162 c -2.448638,-0.905205 -3.292996,0.57604 -3.292996,0.57604 0,0 -0.844358,-1.481245 -3.292996,-0.57604 -1.942024,0.740623 -5.150584,0.329166 -5.150584,0.329166 3.377432,0.740622 3.799611,2.057285 8.44358,2.057285 4.643969,0 5.066148,-1.398954 8.44358,-2.057285 0,0 -3.208561,0.411457 -5.150584,-0.329166"
     id="path11-2"
     style="stroke-width:0.833567;fill:#734c31;fill-opacity:1" /><ellipse
     cx="22.140686"
     cy="29.806789"
     fill="#2b2925"
     id="circle11-3"
     rx="1.266537"
     ry="1.2343709"
     style="stroke-width:0.833567" /><g
     id="g17"
     transform="matrix(0.46088594,0.22142717,-0.40314616,0.50138488,48.482602,29.086262)"
     style="display:inline"><path
       fill="#962c2c"
       d="m 55,35.1 7.5,7.4 -33.3,15.9 c 0,0 -4.4,2 -6.5,-1.2 C 14.5,44.4 55,35.1 55,35.1 Z"
       id="path1" /><path
       fill="#d9e3e8"
       d="m 28.4,49.1 c 0,0 -6.4,2.2 -5.2,6.5 1.2,4.4 6.3,1.7 6.3,1.7 L 61.1,42.6 c 0,0 -1.8,-4.7 1.4,-7.8 L 28.4,49.1"
       id="path2-5" /><path
       fill="#ed4c5c"
       d="M 33.7,5 64,34.5 28.2,48.5 5.2,12.7 Z"
       id="path3" /><path
       fill="#ffffff"
       d="m 34.6,11.7 5.8,6.2 -21.7,7.8 -5.1,-7.9 z"
       id="path4" /><g
       fill="#94989b"
       id="g5"><path
         d="M 61,38 39.9,46.6 60.7,37.1 Z M 60.7,40.6 38.2,49.9 60.3,39.6 Z M 60.9,42 32.2,54.4 60.5,41.1 Z"
         id="path5" /></g><path
       fill="#c94747"
       d="m 22.7,57.2 c -3.5,-7.3 5.5,-8.6 5.5,-8.6 L 5.2,12.7 c 0,0 -5.2,-0.1 -5.2,5.3 0,2.2 1,3.9 1,3.9 l 21.7,35.3"
       id="path6-1" /></g><metadata
     id="metadata17"><rdf:RDF><cc:Work
         rdf:about=""><dc:title>woman teacher: medium-dark skin tone</dc:title></cc:Work></rdf:RDF></metadata></svg>
