<?xml version="1.0" encoding="UTF-8" standalone="no"?>
<svg
   viewBox="0 0 64 64"
   version="1.1"
   id="svg15"
   sodipodi:docname="1f468-1f3fb-200d-1f3eb.svg"
   xml:space="preserve"
   inkscape:version="1.3.2 (091e20e, 2023-11-25, custom)"
   xmlns:inkscape="http://www.inkscape.org/namespaces/inkscape"
   xmlns:sodipodi="http://sodipodi.sourceforge.net/DTD/sodipodi-0.dtd"
   xmlns="http://www.w3.org/2000/svg"
   xmlns:svg="http://www.w3.org/2000/svg"
   xmlns:rdf="http://www.w3.org/1999/02/22-rdf-syntax-ns#"
   xmlns:cc="http://creativecommons.org/ns#"
   xmlns:dc="http://purl.org/dc/elements/1.1/"><title
     id="title17">man teacher: light skin tone</title><defs
     id="defs15" /><sodipodi:namedview
     id="namedview15"
     pagecolor="#ffffff"
     bordercolor="#000000"
     borderopacity="0.25"
     inkscape:showpageshadow="2"
     inkscape:pageopacity="0.0"
     inkscape:pagecheckerboard="0"
     inkscape:deskcolor="#d1d1d1"
     inkscape:zoom="11.313709"
     inkscape:cx="32.438524"
     inkscape:cy="30.538174"
     inkscape:window-width="1920"
     inkscape:window-height="991"
     inkscape:window-x="-9"
     inkscape:window-y="-9"
     inkscape:window-maximized="1"
     inkscape:current-layer="svg15" /><rect
     style="fill:#d99e82;fill-opacity:1;fill-rule:evenodd;stroke-width:0.115559"
     id="rect15"
     width="64.169937"
     height="41.542522"
     x="0"
     y="2.8284271" /><rect
     style="fill:#26a69a;fill-opacity:1;fill-rule:evenodd;stroke-width:0.115559"
     id="rect16"
     width="55.331104"
     height="35.902645"
     x="4.2426405"
     y="5.5795875" /><path
     fill="#b386e2"
     d="m 42.438524,51.233745 v -7.1 H 22.438523 v 7.1 c -12.4999995,0.3 -14.9999995,2.4 -14.9999995,12.9 H 57.438524 c 0,-10.5 -2.5,-12.6 -15,-12.9"
     id="path2"
     style="fill:#d0d0d0;fill-opacity:1" /><path
     fill="#ffb300"
     d="m 11.430927,32.051946 h 42.596257 c 0,-23.1965407 -3.276635,-28.1672281 -21.298129,-28.1672281 -18.021493,0 -21.298128,4.9706874 -21.298128,28.1672281 z"
     id="path1-9"
     style="stroke-width:0.82379;fill:#594640;fill-opacity:1" /><path
     fill="#ffdd67"
     d="m 52.225034,26.998414 c -0.163831,0.911293 -0.327663,1.739741 -0.573411,2.23681 -0.491495,0.828448 -1.39257,1.325516 -1.39257,1.325516 0,0 0.245748,-1.73974 0.163832,-4.142239 -0.982991,-14.414994 -1.802149,-10.438444 -17.69383,-10.438444 -15.89168,0 -16.710839,-3.97655 -17.69383,10.355599 -0.08192,2.402499 0.163832,4.225084 0.163832,4.225084 0,0 -0.901075,-0.497068 -1.39257,-1.325516 -0.245748,-0.497069 -0.409579,-1.325517 -0.573411,-2.23681 -1.474486,-0.414224 -3.4404669,-0.08284 -3.4404669,4.225085 0,2.651033 0.9829909,4.887842 4.3415419,5.136377 1.064906,8.450168 5.979859,12.758097 14.089531,16.486113 2.211729,0.994137 6.799018,0.994137 9.010747,0 8.191587,-3.728016 13.024624,-8.035945 14.089531,-16.486113 3.358551,-0.248535 4.341541,-2.402499 4.341541,-5.136377 0,-4.307929 -1.965981,-4.639309 -3.440467,-4.225085"
     id="path2-2"
     style="stroke-width:0.82379;fill:#ffe1bd;fill-opacity:1" /><path
     fill="#937237"
     d="m 40.101484,42.738924 c 0,2.816723 -3.686214,4.225085 -7.372429,4.225085 -3.686214,0 -7.372429,-1.408362 -7.372429,-4.225085 0,0 0,-0.745603 0.737243,-0.745603 h 13.270372 c 0.737243,0 0.737243,0.745603 0.737243,0.745603"
     id="path3-7"
     style="stroke-width:0.82379;fill:#664e27;fill-opacity:1" /><path
     fill="#f5f5f5"
     d="m 22.89915,25.921432 c -4.095794,0 -5.734112,1.491206 -5.734112,2.982412 0,1.491207 0,3.645171 5.406448,3.645171 5.242616,0 6.061775,-0.662758 6.061775,-2.899567 0,-1.491207 -1.638317,-3.728016 -5.734111,-3.728016"
     id="path4-9"
     style="stroke-width:0.82379" /><ellipse
     cx="23.308729"
     cy="28.406776"
     fill="#664e27"
     id="circle4"
     rx="3.6862144"
     ry="3.7280157"
     style="stroke-width:0.82379" /><path
     fill="#231f20"
     d="m 24.537467,28.406776 c 0,0.662758 -0.573411,1.242672 -1.228738,1.242672 -0.655327,0 -1.228738,-0.579914 -1.228738,-1.242672 0,-0.662759 0.573411,-1.242672 1.228738,-1.242672 0.655327,0 1.228738,0.579913 1.228738,1.242672"
     id="path5-0"
     style="stroke-width:0.82379" /><path
     fill="#664e27"
     d="m 17.165038,28.821 c 0,-5.799136 11.468223,-5.799136 11.468223,0.828448 C 26.994944,24.67876 18.803356,24.67876 17.165038,28.821"
     id="path6"
     style="stroke-width:0.82379" /><path
     fill="#f5f5f5"
     d="m 42.558961,25.921432 c 4.095794,0 5.734111,1.491206 5.734111,2.982412 0,1.491207 0,3.645171 -5.406448,3.645171 -5.242616,0 -6.061775,-0.662758 -6.061775,-2.899567 0,-1.491207 1.638318,-3.728016 5.734112,-3.728016"
     id="path7"
     style="stroke-width:0.82379" /><ellipse
     cx="42.14938"
     cy="28.406776"
     fill="#664e27"
     id="circle7-9"
     rx="3.6862144"
     ry="3.7280157"
     style="stroke-width:0.82379" /><path
     fill="#231f20"
     d="m 40.920643,28.406776 c 0,0.662758 0.573411,1.242672 1.228738,1.242672 0.655327,0 1.228738,-0.579914 1.228738,-1.242672 0,-0.662759 -0.573411,-1.242672 -1.228738,-1.242672 -0.655327,0 -1.228738,0.579913 -1.228738,1.242672"
     id="path8-3"
     style="stroke-width:0.82379" /><path
     fill="#664e27"
     d="m 48.293072,28.821 c 0,-5.799136 -11.468223,-5.799136 -11.468223,0.828448 C 38.463167,24.67876 46.654755,24.67876 48.293072,28.821"
     id="path9-9"
     style="stroke-width:0.82379" /><path
     fill="#eba352"
     d="m 32.729055,39.507978 c -3.440467,0 -5.1607,-2.485344 -3.440467,-2.485344 h 6.880934 c 1.720234,0 0,2.485344 -3.440467,2.485344"
     id="path10"
     style="stroke-width:0.82379;fill:#e6b796;fill-opacity:1" /><g
     id="g17"
     transform="matrix(0.46088594,0.22142717,-0.40314616,0.50138488,48.482602,29.086262)"><path
       fill="#962c2c"
       d="m 55,35.1 7.5,7.4 -33.3,15.9 c 0,0 -4.4,2 -6.5,-1.2 C 14.5,44.4 55,35.1 55,35.1 Z"
       id="path1" /><path
       fill="#d9e3e8"
       d="m 28.4,49.1 c 0,0 -6.4,2.2 -5.2,6.5 1.2,4.4 6.3,1.7 6.3,1.7 L 61.1,42.6 c 0,0 -1.8,-4.7 1.4,-7.8 L 28.4,49.1"
       id="path2-5" /><path
       fill="#ed4c5c"
       d="M 33.7,5 64,34.5 28.2,48.5 5.2,12.7 Z"
       id="path3" /><path
       fill="#ffffff"
       d="m 34.6,11.7 5.8,6.2 -21.7,7.8 -5.1,-7.9 z"
       id="path4" /><g
       fill="#94989b"
       id="g5"><path
         d="M 61,38 39.9,46.6 60.7,37.1 Z M 60.7,40.6 38.2,49.9 60.3,39.6 Z M 60.9,42 32.2,54.4 60.5,41.1 Z"
         id="path5" /></g><path
       fill="#c94747"
       d="m 22.7,57.2 c -3.5,-7.3 5.5,-8.6 5.5,-8.6 L 5.2,12.7 c 0,0 -5.2,-0.1 -5.2,5.3 0,2.2 1,3.9 1,3.9 l 21.7,35.3"
       id="path6-1" /></g><metadata
     id="metadata17"><rdf:RDF><cc:Work
         rdf:about=""><dc:title>man teacher: light skin tone</dc:title></cc:Work></rdf:RDF></metadata></svg>
