<?xml version="1.0" encoding="UTF-8" standalone="no"?>
<svg
   viewBox="0 0 64 64"
   version="1.1"
   id="svg18"
   sodipodi:docname="2695.svg"
   xml:space="preserve"
   inkscape:version="1.3.2 (091e20e, 2023-11-25, custom)"
   xmlns:inkscape="http://www.inkscape.org/namespaces/inkscape"
   xmlns:sodipodi="http://sodipodi.sourceforge.net/DTD/sodipodi-0.dtd"
   xmlns="http://www.w3.org/2000/svg"
   xmlns:svg="http://www.w3.org/2000/svg"><defs
     id="defs18" /><sodipodi:namedview
     id="namedview18"
     pagecolor="#ffffff"
     bordercolor="#000000"
     borderopacity="0.25"
     inkscape:showpageshadow="2"
     inkscape:pageopacity="0.0"
     inkscape:pagecheckerboard="0"
     inkscape:deskcolor="#d1d1d1"
     inkscape:zoom="11.313709"
     inkscape:cx="31.289475"
     inkscape:cy="31.068504"
     inkscape:window-width="1920"
     inkscape:window-height="991"
     inkscape:window-x="-9"
     inkscape:window-y="-9"
     inkscape:window-maximized="1"
     inkscape:current-layer="svg18" /><title
     id="title1">medical symbol</title><path
     style="display:inline;fill:#0000bb;fill-opacity:1;fill-rule:evenodd;stroke-width:0.131"
     d="M 1.3258252,23.5113 9.7227182,9.1923881 23.688077,17.500893 23.599689,1.1490485 39.863145,1.2374369 39.951533,17.500893 54.358834,9.3691648 62.667338,23.776465 48.613591,32.173358 62.490562,39.951533 54.358834,54.447222 40.216698,45.961941 V 62.57895 L 23.246135,62.490562 23.688077,45.696776 9.3691648,54.447222 1.2374369,39.863145 15.202796,31.908193 Z"
     id="path19" /><g
     id="staff"
     transform="matrix(1.8349224,0,0,0.89688026,24.493942,-0.41247902)"
     style="fill:#8fd9fb;fill-opacity:1"><path
       fill="#f2b200"
       d="M 3.5,11.3 H 6.4 V 62 H 3.5 Z"
       id="path1"
       style="fill:#8fd9fb;fill-opacity:1" /><path
       fill="#ffce31"
       d="M 4.9,12.6 H 5.8 V 62 H 4.9 Z"
       id="path2"
       style="fill:#8fd9fb;fill-opacity:1" /><path
       fill="#f2b200"
       d="M 7.9,11.3 C 7.9,13.1 6.6,14.6 5,14.6 3.4,14.6 2,13.1 2,11.3 2,9.5 3.3,8 4.9,8 c 1.6,0 3,1.5 3,3.3"
       id="path3"
       style="fill:#8fd9fb;fill-opacity:1" /><path
       fill="#ffce31"
       d="M 6.4,10.5 C 6.4,10 6.1,9.7 5.7,9.7 5.3,9.7 5,10.1 5,10.5 c 0,0.5 0.3,0.8 0.7,0.8 0.4,0 0.7,-0.4 0.7,-0.8"
       id="path4"
       style="fill:#8fd9fb;fill-opacity:1" /></g><g
     id="snake"
     transform="matrix(0.45873061,0,0,0.44844014,16.236791,26.493929)"
     style="fill:#8fd9fb;fill-opacity:1"><path
       fill="#8cc63e"
       d="m 61.7,24.3 c -0.1,-1 -0.3,-1.9 -0.5,-2.6 -0.4,-1.4 -0.7,-2.3 -1,-2.9 C 59.9,18.1 59.6,17.7 59.3,17.3 58.8,16.5 58.3,16 57.8,15.6 56.9,14.8 56.1,14.2 55.3,13.7 53.7,12.8 52.1,12.2 50.6,11.6 47.5,10.6 44.4,10 41.4,9.5 35.3,8.5 29.2,8.1 23.1,7.6 21.6,7.5 20.1,7.3 18.6,7 18.2,6.9 20.6,6.1 21.8,5.7 27.8,4.1 33.9,3.1 40,2.5 33.9,2 27.8,1.8 21.7,2.2 14,2.8 12.2,5 12.5,8.6 c 0.1,0.9 0.3,1.1 0.4,1.4 0.1,0.2 0.2,0.4 0.3,0.5 0.2,0.2 0.3,0.3 0.4,0.5 0.9,0.8 1.6,1.2 2.4,1.6 0.8,0.4 1.5,0.7 2.3,1 1.5,0.6 3,1 4.6,1.5 6.1,1.8 12.1,3.5 18,5.8 3,1.1 5.9,2.4 8.8,4 1.1,0.6 -19.6,14.1 -25.6,14.8 l 0.7,19.5 c 6.1,-2.1 12.2,-4.4 18.3,-7.9 1.5,-0.9 3.1,-1.8 4.6,-2.9 1.5,-1.1 3,-2.2 4.5,-3.4 1.5,-1.3 3,-2.6 4.6,-4.4 0.8,-1 1.6,-1.9 2.5,-3.6 0.5,-0.9 1,-1.8 1.6,-4.1 0.3,-1.1 0.6,-2.8 0.7,-5.1 0.3,-1.3 0.2,-2.4 0.1,-3.5"
       id="path5"
       style="fill:#8fd9fb;fill-opacity:1" /><g
       fill="#ffd93b"
       id="g6"
       style="fill:#8fd9fb;fill-opacity:1"><path
         d="m 50.5,27.6 c -2.9,-2.3 -6.1,-4 -9.4,-5.5 -3.3,-1.5 -6.6,-2.7 -10,-3.9 C 27.7,17 24.4,16 21,14.8 19.3,14.2 17.6,13.6 16,12.8 15.2,12.4 14.4,11.9 13.6,11.2 13.2,10.8 12.9,10.4 12.7,9.9 12.5,9.4 12.4,8.8 12.4,8.1 c 0,0.6 -0.2,2.5 3.7,4.2 1.6,0.7 3.4,1 5.1,1.5 3.4,0.8 6.8,1.5 10.3,2.4 3.4,0.8 6.9,1.7 10.3,2.8 3.4,1.2 6.8,2.6 10.1,4.7 l -1.4,3.9 M 18,6.4 C 19.9,5.7 21.7,5.3 23.5,4.8 25.3,4.4 27.2,4 29,3.7 32.7,3.1 36.4,2.7 40,2.6 36.3,3 32.7,3.7 29,4.6 L 23.6,6.1 C 21.8,6.7 20,7.3 18.3,8.1 L 18,6.4"
         id="path6"
         style="fill:#8fd9fb;fill-opacity:1" /></g><g
       fill="#8cc63e"
       id="g7"
       style="fill:#8fd9fb;fill-opacity:1"><path
         d="m 46,33.6 -2.3,-4 c 4.6,-2.9 5.4,-5 5.7,-6.9 0.3,-1.8 -0.3,-3.3 -1.5,-4.4 l 2.3,-5.2 c 2.7,2.5 4,6.5 3.4,10.8 -0.7,4.9 -3.7,8.7 -7.6,9.7 M 22.9,9.4 C 17.6,9 16.7,8.3 16.7,5 h 1.2 c 0,1.8 0,2.2 5.1,2.7 l -0.1,1.7"
         id="path7"
         style="fill:#8fd9fb;fill-opacity:1" /></g><path
       fill="#ffd93b"
       d="m 31.7,51.5 2.4,-0.6 c 0.8,-0.2 1.5,-0.4 2.3,-0.6 1.5,-0.4 3.1,-0.9 4.6,-1.5 3,-1.1 6.1,-2.5 8.9,-4.2 2.9,-1.8 5.7,-3.9 8,-6.8 1.1,-1.5 2.2,-3.2 2.9,-5.2 0.7,-2 1.1,-4.2 1,-6.5 0.3,2.3 0.2,4.7 -0.3,6.9 -0.5,2.3 -1.4,4.4 -2.5,6.2 -2.1,3.7 -4.8,6.7 -7.7,9.2 -8,8 -19.1,8.3 -19.1,8.3 l -0.5,-5.2"
       id="path8"
       style="fill:#8fd9fb;fill-opacity:1" /><path
       fill="#e8f94b"
       d="m 2.1,50.4 c 0.3,-1.2 1.5,-2.3 2.6,-2 1.1,0.3 1.7,1.8 1.4,3 -0.3,1.2 -1.3,1.5 -2.4,1.3 -1.1,-0.3 -1.9,-1 -1.6,-2.3"
       id="path9"
       style="fill:#8fd9fb;fill-opacity:1" /><path
       fill="#252728"
       d="m 2.9,50.7 c 0.2,-0.8 0.9,-1.4 1.6,-1.3 0.7,0.2 1,1.1 0.8,1.9 -0.2,0.8 -0.8,1 -1.5,0.8 C 3.2,51.9 2.7,51.4 2.9,50.7"
       id="path10"
       style="fill:#8fd9fb;fill-opacity:1" /><path
       fill="#4b662b"
       d="M 2,50.4 C 2.3,49.1 3.6,47.9 4.8,48.2 6,48.5 6.6,50.1 6.3,51.5 4.4,49.9 2,50.4 2,50.4"
       id="path11"
       style="fill:#8fd9fb;fill-opacity:1" /><path
       fill="#8cc63e"
       d="M 3.1,54.5 C 2.7,44.7 16.1,39.4 24.6,39 33,38.6 39.9,38.8 40.4,48.6 40.8,58.4 34,59.7 25.6,60.8 16.8,62.1 3.6,64.4 3.1,54.5"
       id="path12"
       style="fill:#8fd9fb;fill-opacity:1" /><g
       fill="#4b662b"
       id="g13"
       style="fill:#8fd9fb;fill-opacity:1"><path
         d="M 8,55.2 C 7.7,56.1 7.1,56.9 6.8,56.8 6.4,56.7 6.4,55.7 6.7,54.8 7,53.9 7.4,53.4 7.8,53.6 c 0.3,0 0.5,0.6 0.2,1.6 M 4.8,54.3 c 0,0.6 -0.2,1.2 -0.5,1.2 -0.2,0 -0.4,-0.6 -0.4,-1.3 0,-0.6 0.2,-1 0.5,-1 0.3,0 0.4,0.4 0.4,1.1"
         id="path13"
         style="fill:#8fd9fb;fill-opacity:1" /></g><path
       fill="#e8f94b"
       d="m 12.9,52.3 c 0,-2.7 2.1,-5.6 4.7,-5.6 2.6,0 4.7,2.9 4.7,5.6 0,2.7 -2.1,3.9 -4.7,3.9 -2.6,0 -4.7,-1.2 -4.7,-3.9"
       id="path14"
       style="fill:#8fd9fb;fill-opacity:1" /><path
       fill="#252728"
       d="m 14.7,52.5 c 0,-1.7 1.3,-3.5 2.9,-3.5 1.6,0 2.9,1.8 2.9,3.5 0,1.7 -1.3,2.4 -2.9,2.4 -1.6,0 -2.9,-0.8 -2.9,-2.4"
       id="path15"
       style="fill:#8fd9fb;fill-opacity:1" /><g
       fill="#4b662b"
       id="g16"
       style="fill:#8fd9fb;fill-opacity:1"><path
         d="m 12.6,52.4 c 0,-2.9 2.2,-6 5,-6 2.8,0 5,3.1 5,6 -5,-2.4 -10,0 -10,0 M 39.3,32.3 c 5.3,0.8 12.2,2.8 15,6.3 0,0 -2,-7.2 -8.2,-10.7 -0.2,0.2 -0.5,0.4 -0.7,0.6 -1.8,1.1 -3.9,2.4 -6.1,3.8 M 44,44.7 c 0,0 -1.4,-7 -7.1,-11 -2.4,1.4 -4.8,2.7 -7,3.8 5.2,1.2 11.7,3.6 14.1,7.2 m 3.4,-18.1 c 4.2,-0.6 10.2,-0.2 12.9,1 0,0 -3.8,-4.9 -10.9,-5.4 0,0 -0.3,2.5 -2,4.4 m 12,-9.3 c -0.5,-0.8 -1,-1.3 -1.5,-1.7 -0.4,-0.3 -0.7,-0.6 -1,-0.9 -5.4,1.6 -7.1,5.8 -7.1,5.8 2.3,-1.9 6.5,-1.5 10.5,-1.7 V 18.7 C 59.9,18.1 59.6,17.6 59.4,17.3 M 22.3,12.1 C 22.9,10.5 24.9,9 26.8,7.9 25.7,7.8 24.6,7.7 23.4,7.6 22.2,9.8 22.3,12.1 22.3,12.1 M 16.4,10.2 C 17.5,8.9 20.3,8 22.5,7.6 21.7,7.5 21,7.4 20.2,7.3 19.5,7.2 19,7 18.7,6.9 c -1.8,1.5 -2.3,3.3 -2.3,3.3 m 31.3,0.6 c -2.3,4 -2.5,7.9 -2.5,7.9 1.2,-2.5 4.1,-4.6 7.3,-6.4 -0.6,-0.3 -1.3,-0.5 -1.9,-0.7 -1,-0.3 -1.9,-0.5 -2.9,-0.8 m -14.3,3.8 c 0.7,-2.1 3.4,-4 5.9,-5.4 C 37.9,9 36.5,8.8 35,8.7 c -1.8,2.7 -1.6,5.9 -1.6,5.9 M 40.3,9.4 C 39,12.9 39,16 39,16 c 0.9,-2.1 3,-4.2 5.4,-5.9 l -3,-0.6 C 41,9.5 40.7,9.4 40.3,9.4 m -12.4,4.4 c 0.7,-2 3.3,-3.9 5.6,-5.3 -1.4,-0.1 -2.8,-0.3 -4.2,-0.4 -1.5,2.7 -1.4,5.7 -1.4,5.7 M 17.6,6.6 c 0,0 -1.9,-1.2 -4.3,-1.4 -0.5,0.7 -0.7,1.6 -0.8,2.6 1.7,-0.9 3.6,-1.5 5.1,-1.2 m 1.3,-1 c 0,0 -0.2,-1.4 -0.9,-2.9 -0.7,0.1 -1.3,0.3 -1.8,0.5 1.2,0.7 2.2,1.5 2.7,2.4 M 30.5,2.9 V 2 h -0.4 c 0.1,0.3 0.3,0.6 0.4,0.9 m -4.8,1 c 0,0 0,-0.8 -0.1,-1.8 h -1 c 0.5,0.6 0.9,1.2 1.1,1.8 M 34.9,2.6 V 2.2 h -0.2 c 0.1,0.1 0.2,0.3 0.2,0.4 M 22.1,2.2 h -0.4 c -0.3,0 -0.6,0.1 -1,0.1 0.7,0.7 1.3,1.5 1.6,2.2 0,0 0,-1 -0.2,-2.3 M 32.9,2.6 V 2.1 h -0.2 c 0.1,0.2 0.2,0.3 0.2,0.5 m -4.7,0.7 c 0,0 0,-0.5 -0.1,-1.3 h -0.7 c 0.4,0.4 0.7,0.9 0.8,1.3"
         id="path16"
         style="fill:#8fd9fb;fill-opacity:1" /></g></g><g
     id="g18"
     transform="matrix(1.8349224,0,0,0.89688026,24.493942,-0.41247902)"
     style="display:inline;fill:#8fd9fb;fill-opacity:1"><path
       fill="#f2b200"
       d="M 3.5,11.3 H 6.4 V 42 H 3.5 Z"
       id="path17"
       style="fill:#8fd9fb;fill-opacity:1" /><path
       fill="#ffce31"
       d="M 4.9,12.6 H 5.8 V 42 H 4.9 Z"
       id="path18"
       style="fill:#8fd9fb;fill-opacity:1" /></g></svg>
